<!-- Generated by IcoMoon.io -->
<svg version="1.1" xmlns="http://www.w3.org/2000/svg" width="32" height="32" viewBox="0 0 32 32">
<path fill="none" stroke="#fff" stroke-linejoin="round" stroke-linecap="round" stroke-miterlimit="4" stroke-width="2.6667" d="M14.964 3.243c0.379-0.21 0.569-0.316 0.768-0.356 0.081-0.017 0.173-0.027 0.268-0.027s0.188 0.010 0.277 0.029l-0.009-0.002c0.201 0.039 0.391 0.146 0.768 0.356l9.867 5.481c0.398 0.222 0.599 0.332 0.745 0.491 0.124 0.135 0.221 0.297 0.282 0.476l0.003 0.009c0.068 0.204 0.068 0.432 0.068 0.889v10.823c0 0.457 0 0.684-0.068 0.889-0.063 0.188-0.16 0.35-0.285 0.486l0.001-0.001c-0.146 0.158-0.347 0.268-0.747 0.491l-9.867 5.481c-0.377 0.21-0.565 0.315-0.764 0.356-0.081 0.017-0.174 0.027-0.269 0.027s-0.188-0.010-0.278-0.029l0.009 0.002c-0.201-0.041-0.391-0.146-0.768-0.356l-9.867-5.481c-0.398-0.222-0.599-0.332-0.745-0.491-0.124-0.135-0.221-0.297-0.282-0.476l-0.003-0.009c-0.068-0.204-0.068-0.432-0.068-0.889v-10.823c0-0.457 0-0.684 0.068-0.889 0.063-0.188 0.16-0.35 0.285-0.486l-0.001 0.001c0.146-0.158 0.347-0.268 0.747-0.491l9.867-5.481z"></path>
</svg>
