<!-- Generated by IcoMoon.io -->
<svg version="1.1" xmlns="http://www.w3.org/2000/svg" width="32" height="32" viewBox="0 0 32 32">
<path fill="none" stroke="#fff" stroke-linejoin="round" stroke-linecap="round" stroke-miterlimit="4" stroke-width="2.6667" d="M4.454 22.666c-1.67-2.893-0.821-6.58 1.944-8.453l0.003-0.003c2.221-1.501 5.143-1.45 7.312 0.126l4.576 3.327c2.167 1.576 5.090 1.627 7.312 0.126l0.003-0.003c2.766-1.872 3.616-5.563 1.943-8.453M22.669 27.546c-2.893 1.669-6.58 0.821-8.453-1.944l-0.003-0.003c-1.501-2.221-1.45-5.143 0.126-7.312l3.327-4.576c1.576-2.167 1.627-5.090 0.126-7.312l-0.006-0.003c-1.872-2.763-5.563-3.615-8.453-1.942M25.427 6.572c5.207 5.207 5.207 13.648 0 18.855s-13.648 5.207-18.855 0c-5.207-5.207-5.207-13.648 0-18.855s13.648-5.207 18.855 0z"></path>
</svg>
